<svg width="21" height="42" viewBox="0 0 21 42" fill="none" xmlns="http://www.w3.org/2000/svg">
<path d="M8.256 32.128C5.952 32.128 3.648 32.0427 1.344 31.872L1.184 28.736L3.52 28.096V15.904C3.52 15.3493 3.47733 14.9867 3.392 14.816C3.30667 14.624 3.08267 14.4533 2.72 14.304L1.056 13.376L1.248 10.72C4.704 10.272 7.66933 10.048 10.144 10.048C13.1733 10.048 15.392 10.496 16.8 11.392C18.208 12.288 18.912 13.7067 18.912 15.648C18.912 16.608 18.7627 17.4613 18.464 18.208C18.1653 18.9333 17.7067 19.5947 17.088 20.192C19.2213 21.152 20.288 22.7093 20.288 24.864C20.288 26.784 19.7547 28.3307 18.688 29.504C17.6213 30.6773 16.0533 31.4453 13.984 31.808C13.216 32.0213 11.3067 32.128 8.256 32.128ZM12.96 19.168C13.1733 18.6133 13.28 17.6853 13.28 16.384C13.28 15.488 13.0667 14.8267 12.64 14.4C12.2347 13.9733 11.6053 13.7387 10.752 13.696C10.1973 13.696 9.64267 13.7173 9.088 13.76V19.104C9.45067 19.0827 9.92 19.072 10.496 19.072C11.3707 19.072 12.192 19.104 12.96 19.168ZM11.616 28.16C12.832 28.16 13.696 28.0533 14.208 27.84C14.4213 26.9867 14.528 26.2293 14.528 25.568C14.528 24.5013 14.2507 23.744 13.696 23.296C13.1413 22.848 12.2027 22.624 10.88 22.624C10.6027 22.624 10.2507 22.6453 9.824 22.688L9.088 22.72V27.936C9.83467 28.0853 10.6773 28.16 11.616 28.16Z" fill="#E8E8E8"/>
<mask id="mask0" mask-type="alpha" maskUnits="userSpaceOnUse" x="1" y="10" width="20" height="23">
<path d="M8.256 32.128C5.952 32.128 3.648 32.0427 1.344 31.872L1.184 28.736L3.52 28.096V15.904C3.52 15.3493 3.47733 14.9867 3.392 14.816C3.30667 14.624 3.08267 14.4533 2.72 14.304L1.056 13.376L1.248 10.72C4.704 10.272 7.66933 10.048 10.144 10.048C13.1733 10.048 15.392 10.496 16.8 11.392C18.208 12.288 18.912 13.7067 18.912 15.648C18.912 16.608 18.7627 17.4613 18.464 18.208C18.1653 18.9333 17.7067 19.5947 17.088 20.192C19.2213 21.152 20.288 22.7093 20.288 24.864C20.288 26.784 19.7547 28.3307 18.688 29.504C17.6213 30.6773 16.0533 31.4453 13.984 31.808C13.216 32.0213 11.3067 32.128 8.256 32.128ZM12.96 19.168C13.1733 18.6133 13.28 17.6853 13.28 16.384C13.28 15.488 13.0667 14.8267 12.64 14.4C12.2347 13.9733 11.6053 13.7387 10.752 13.696C10.1973 13.696 9.64267 13.7173 9.088 13.76V19.104C9.45067 19.0827 9.92 19.072 10.496 19.072C11.3707 19.072 12.192 19.104 12.96 19.168ZM11.616 28.16C12.832 28.16 13.696 28.0533 14.208 27.84C14.4213 26.9867 14.528 26.2293 14.528 25.568C14.528 24.5013 14.2507 23.744 13.696 23.296C13.1413 22.848 12.2027 22.624 10.88 22.624C10.6027 22.624 10.2507 22.6453 9.824 22.688L9.088 22.72V27.936C9.83467 28.0853 10.6773 28.16 11.616 28.16Z" fill="#E8E8E8"/>
</mask>
<g mask="url(#mask0)">
<path d="M9.5 22.5C3.27571 26.2887 5.6799 27.3536 3.5 15L-1 38.5H25V21.5H19C18.5555 23.6414 11.5 27 16.5 27C21.5 27 14 27 12.5 28C11 29 8.75579 32.3048 5.5 32C4.13495 28.0658 5.95128 27.6677 9.5 28V22.5Z" fill="#0085FF"/>
</g>
</svg>
